# Blender v2.79 (sub 0) OBJ File: ''
# www.blender.org
mtllib untitled.mtl
o Cube
v 0.694373 -0.392307 -1.057071
v 0.694373 -0.392307 0.942929
v -1.305627 -0.392307 0.942929
v -1.305627 -0.392307 -1.057071
v 0.694373 1.607693 -1.057070
v 0.694372 1.607693 0.942930
v -1.305628 1.607693 0.942929
v -1.305627 1.607693 -1.057071
vt 0.666467 0.666467
vt 0.333533 0.333533
vt 0.333533 0.666467
vt 0.333533 0.000200
vt 0.666467 0.333134
vt 0.333533 0.333134
vt 0.000200 0.000200
vt 0.333134 0.333134
vt 0.000200 0.333134
vt 0.666866 0.000200
vt 0.999800 0.333134
vt 0.666866 0.333134
vt 0.333134 0.666866
vt 0.000200 0.999800
vt 0.333134 0.999800
vt 0.333134 0.666467
vt 0.000200 0.333533
vt 0.000200 0.666467
vt 0.666467 0.333533
vt 0.666467 0.000200
vt 0.333134 0.000200
vt 0.999800 0.000200
vt 0.000200 0.666866
vt 0.333134 0.333533
vn 0.0000 -1.0000 0.0000
vn 0.0000 1.0000 0.0000
vn 1.0000 -0.0000 0.0000
vn -0.0000 -0.0000 1.0000
vn -1.0000 -0.0000 -0.0000
vn 0.0000 0.0000 -1.0000
usemtl Material
s off
f 2/1/1 4/2/1 1/3/1
f 8/4/2 6/5/2 5/6/2
f 5/7/3 2/8/3 1/9/3
f 6/10/4 3/11/4 2/12/4
f 3/13/5 8/14/5 4/15/5
f 1/16/6 8/17/6 5/18/6
f 2/1/1 3/19/1 4/2/1
f 8/4/2 7/20/2 6/5/2
f 5/7/3 6/21/3 2/8/3
f 6/10/4 7/22/4 3/11/4
f 3/13/5 7/23/5 8/14/5
f 1/16/6 4/24/6 8/17/6
