# This file uses centimeters as units for non-parametric coordinates.

mtllib cube.mtl
g default
v -29.583469 -29.583469 29.583469
v 29.583469 -29.583469 29.583469
v -29.583469 29.583469 29.583469
v 29.583469 29.583469 29.583469
v -29.583469 29.583469 -29.583469
v 29.583469 29.583469 -29.583469
v -29.583469 -29.583469 -29.583469
v 29.583469 -29.583469 -29.583469
vt 0.617664 0.335258
vt 0.947141 0.335258
vt 0.947141 0.664736
vt 0.617664 0.664736
vt 0.338706 0.331470
vt 0.338706 0.001992
vt 0.668181 0.001992
vt 0.668181 0.331470
vt 0.001890 0.001994
vt 0.331368 0.001994
vt 0.331368 0.331474
vt 0.001890 0.331474
vt 0.282364 0.335265
vt 0.611841 0.335265
vt 0.611841 0.664742
vt 0.282364 0.664742
vt 0.001892 0.668531
vt 0.331367 0.668531
vt 0.331367 0.998008
vt 0.001892 0.998008
vt 0.338706 0.668531
vt 0.668184 0.668531
vt 0.668184 0.998008
vt 0.338706 0.998008
vn 0.000000 0.000000 1.000000
vn 0.000000 0.000000 1.000000
vn 0.000000 0.000000 1.000000
vn 0.000000 0.000000 1.000000
vn 0.000000 1.000000 0.000000
vn 0.000000 1.000000 0.000000
vn 0.000000 1.000000 0.000000
vn 0.000000 1.000000 0.000000
vn 0.000000 0.000000 -1.000000
vn 0.000000 0.000000 -1.000000
vn 0.000000 0.000000 -1.000000
vn 0.000000 0.000000 -1.000000
vn 0.000000 -1.000000 0.000000
vn 0.000000 -1.000000 0.000000
vn 0.000000 -1.000000 0.000000
vn 0.000000 -1.000000 0.000000
vn 1.000000 0.000000 0.000000
vn 1.000000 0.000000 0.000000
vn 1.000000 0.000000 0.000000
vn 1.000000 0.000000 0.000000
vn -1.000000 0.000000 0.000000
vn -1.000000 0.000000 0.000000
vn -1.000000 0.000000 0.000000
vn -1.000000 0.000000 0.000000
s 1
g pCube1
usemtl lambert2SG
f 1/1/1 2/2/2 3/4/3
f 3/4/3 2/2/2 4/3/4
s 2
f 3/5/5 4/6/6 5/8/7
f 5/8/7 4/6/6 6/7/8
s 3
f 5/9/9 6/10/10 7/12/11
f 7/12/11 6/10/10 8/11/12
s 4
f 7/13/13 8/14/14 1/16/15
f 1/16/15 8/14/14 2/15/16
s 5
f 2/17/17 8/18/18 4/20/19
f 4/20/19 8/18/18 6/19/20
s 6
f 7/21/21 1/22/22 5/24/23
f 5/24/23 1/22/22 3/23/24
