# Blender v2.79 (sub 0) OBJ File: ''
# www.blender.org
mtllib cube2.mtl
o pCube1
v -29.583469 -29.583475 29.583464
v 29.583469 -29.583475 29.583464
v -29.583469 29.583464 29.583475
v 29.583469 29.583464 29.583475
v -29.583469 29.583475 -29.583464
v 29.583469 29.583475 -29.583464
v -29.583469 -29.583464 -29.583475
v 29.583469 -29.583464 -29.583475
vt 0.617664 0.335258
vt 0.947141 0.335258
vt 0.617664 0.664736
vt 0.947141 0.664736
vt 0.338706 0.331470
vt 0.338706 0.001992
vt 0.668181 0.331470
vt 0.668181 0.001992
vt 0.001890 0.001994
vt 0.331368 0.001994
vt 0.001890 0.331474
vt 0.331368 0.331474
vt 0.282364 0.335265
vt 0.611841 0.335265
vt 0.282364 0.664742
vt 0.611841 0.664742
vt 0.001892 0.668531
vt 0.331367 0.668531
vt 0.001892 0.998008
vt 0.331367 0.998008
vt 0.338706 0.668531
vt 0.668184 0.668531
vt 0.338706 0.998008
vt 0.668184 0.998008
vn 0.0000 -0.0000 1.0000
vn 0.0000 1.0000 0.0000
vn 0.0000 0.0000 -1.0000
vn 0.0000 -1.0000 -0.0000
vn 1.0000 0.0000 0.0000
vn -1.0000 -0.0000 0.0000
usemtl lambert2SG
s 1
f 1/1/1 2/2/1 3/3/1
f 3/3/1 2/2/1 4/4/1
f 3/5/2 4/6/2 5/7/2
f 5/7/2 4/6/2 6/8/2
f 5/9/3 6/10/3 7/11/3
f 7/11/3 6/10/3 8/12/3
f 7/13/4 8/14/4 1/15/4
f 1/15/4 8/14/4 2/16/4
f 2/17/5 8/18/5 4/19/5
f 4/19/5 8/18/5 6/20/5
f 7/21/6 1/22/6 5/23/6
f 5/23/6 1/22/6 3/24/6
o Cube
v 1.000000 -1.000000 -1.000000
v 1.000000 -1.000000 1.000000
v -1.000000 -1.000000 1.000000
v -1.000000 -1.000000 -1.000000
v 1.000000 1.000000 -0.999999
v 0.999999 1.000000 1.000001
v -1.000000 1.000000 1.000000
v -1.000000 1.000000 -1.000000
vn 0.0000 -1.0000 0.0000
vn 0.0000 1.0000 0.0000
vn 1.0000 0.0000 0.0000
vn -0.0000 -0.0000 1.0000
vn -1.0000 -0.0000 -0.0000
vn 0.0000 0.0000 -1.0000
usemtl Material
s off
f 9//7 10//7 11//7 12//7
f 13//8 16//8 15//8 14//8
f 9//9 13//9 14//9 10//9
f 10//10 14//10 15//10 11//10
f 11//11 15//11 16//11 12//11
f 13//12 9//12 12//12 16//12
